<svg width="145" height="168" viewBox="0 0 145 168" fill="none" xmlns="http://www.w3.org/2000/svg">
<path d="M126.49 72.2399C125.16 72.2399 123.83 71.75 122.78 70.7L84 31.92L45.22 70.7C43.19 72.73 39.83 72.73 37.8 70.7C35.77 68.67 35.77 65.31 37.8 63.28L80.29 20.79C82.32 18.76 85.68 18.76 87.71 20.79L130.2 63.28C132.23 65.31 132.23 68.67 130.2 70.7C129.22 71.75 127.82 72.2399 126.49 72.2399Z" fill="black"/>
<path d="M84 148.75C81.13 148.75 78.75 146.37 78.75 143.5V25.6899C78.75 22.8199 81.13 20.4399 84 20.4399C86.87 20.4399 89.25 22.8199 89.25 25.6899V143.5C89.25 146.37 86.87 148.75 84 148.75Z" fill="black"/>
</svg>
