<svg xmlns="http://www.w3.org/2000/svg" width="46" height="46" fill="none" viewBox="0 0 46 46"><path fill="#155EEF" fill-rule="evenodd" d="M21.9268 25.3071C21.3989 25.2914 21.0267 24.8509 21.0614 24.3265L21.1004 23.7348C21.1284 23.3108 21.4135 22.9503 21.7917 22.7839H30.226C32.759 22.7839 34.8123 20.7306 34.8123 18.1977C34.8123 15.6648 32.759 13.6115 30.2261 13.6115H24.6994C21.3615 13.5612 17.5255 13.5209 15.7504 13.5053C15.2077 13.5005 14.7695 13.0767 14.7453 12.538L14.73 12.1976C14.7046 11.6296 15.1483 11.1521 15.7207 11.1438C19.2025 11.0934 29.8347 11.001 30.7822 11.1269C31.8752 11.2722 32.9204 11.657 33.8393 12.2527C34.7583 12.8483 35.5272 13.6393 36.0884 14.5664C36.6497 15.4934 36.9887 16.5324 37.0802 17.6055C37.1716 18.6786 37.013 19.758 36.6163 20.7628C36.2196 21.7676 35.595 22.6717 34.7895 23.4074C33.9839 24.143 33.0183 24.6911 31.9649 25.0106C31.0656 25.2834 24.5057 25.3835 21.9268 25.3071Z" clip-rule="evenodd"/><path fill="#155EEF" fill-rule="evenodd" d="M14.9382 33.1803C14.9524 32.7293 15.3057 32.3877 15.7515 32.3442L16.2873 32.292C16.928 32.2296 17.4945 32.7982 17.4917 33.4468C17.4883 34.2223 17.5181 35.1585 17.561 35.9441L17.561 36.0963C17.561 36.3541 17.582 36.607 17.6224 36.8533C17.6304 36.9482 17.6386 37.0359 17.6467 37.1152C17.6674 37.1616 17.6863 37.2038 17.7035 37.2422C18.2137 39.2524 20.0353 40.7395 22.2042 40.7395C24.7685 40.7395 26.8474 38.6607 26.8474 36.0963L26.8474 26.6719C26.9647 26.2634 27.335 25.9647 27.7779 25.9582L28.1789 25.9523C28.719 25.9444 29.1667 26.3757 29.1774 26.9195C29.2285 29.4983 29.313 35.866 29.1904 36.7912C29.0451 37.8869 28.6602 38.9345 28.0646 39.8557C27.4689 40.7769 26.6779 41.5477 25.7509 42.1103C24.8239 42.6729 23.7849 43.0128 22.7117 43.1044C21.6386 43.196 20.5592 43.0371 19.5544 42.6394C18.5496 42.2417 17.6455 41.6157 16.9099 40.8082C16.1743 40.0007 15.6261 39.0327 15.3066 37.9767C15.0431 37.1057 14.8927 34.6332 14.9382 33.1803Z" clip-rule="evenodd"/><rect width="2.293" height="13.759" x="21.054" y="23.548" fill="#155EEF" rx="1.019"/><path fill="#155EEF" d="M28.1522 16.9235C28.7151 16.9235 29.1714 17.3798 29.1714 17.9427L29.1714 21.2319C29.1714 21.7948 28.7151 22.2511 28.1522 22.2511L27.8884 22.2511C27.3403 22.2511 26.8903 21.8176 26.8699 21.2699L26.8336 20.295C26.8133 19.7508 26.3687 19.3187 25.8242 19.3138L15.9132 19.2256C15.3539 19.2207 14.9031 18.7658 14.9031 18.2065L14.9031 17.9427C14.9031 17.3798 15.3594 16.9235 15.9222 16.9235L28.1522 16.9235Z"/></svg>